<svg class="preloader" viewBox="0 0 27 28" fill="none" xmlns="http://www.w3.org/2000/svg">
<path fill-rule="evenodd" clip-rule="evenodd" d="M2.7002 14.0002C2.7002 8.3302 7.1202 2.7002 14.0002 2.7002C19.5562 2.7002 22.3042 6.8122 23.4742 9.0002H20.0002C19.735 9.0002 19.4806 9.10555 19.2931 9.29309C19.1056 9.48063 19.0002 9.73498 19.0002 10.0002C19.0002 10.2654 19.1056 10.5198 19.2931 10.7073C19.4806 10.8948 19.735 11.0002 20.0002 11.0002H26.0002C26.2654 11.0002 26.5198 10.8948 26.7073 10.7073C26.8948 10.5198 27.0002 10.2654 27.0002 10.0002V4.0002C27.0002 3.73498 26.8948 3.48063 26.7073 3.29309C26.5198 3.10555 26.2654 3.0002 26.0002 3.0002C25.735 3.0002 25.4806 3.10555 25.2931 3.29309C25.1056 3.48063 25.0002 3.73498 25.0002 4.0002V7.6262C23.5922 5.1422 20.3322 0.700195 14.0002 0.700195C5.8742 0.700195 0.700195 7.3702 0.700195 14.0002C0.700195 20.6302 5.8742 27.3002 14.0002 27.3002C17.8882 27.3002 21.1242 25.7602 23.4282 23.4162C24.6508 22.1692 25.6206 20.6975 26.2842 19.0822C26.3341 18.9607 26.3596 18.8306 26.3592 18.6993C26.3588 18.568 26.3326 18.438 26.282 18.3168C26.2314 18.1956 26.1574 18.0856 26.0643 17.993C25.9711 17.9004 25.8607 17.8271 25.7392 17.7772C25.6177 17.7273 25.4876 17.7018 25.3563 17.7022C25.225 17.7026 25.095 17.7288 24.9738 17.7794C24.8526 17.83 24.7426 17.904 24.65 17.9971C24.5574 18.0903 24.4841 18.2007 24.4342 18.3222C23.869 19.6981 23.0432 20.9518 22.0022 22.0142C20.0602 23.9942 17.3302 25.3002 14.0002 25.3002C7.1202 25.3002 2.7002 19.6702 2.7002 14.0002Z" fill="white" fill-opacity="0.5"/>
</svg>
