<svg class="search" viewBox="0 0 26 26" fill="none" xmlns="http://www.w3.org/2000/svg">
    <path d="M23.7667 25.75L14.8417 16.825C14.1333 17.3917 13.3187 17.8403 12.3979 18.1708C11.4771 18.5014 10.4972 18.6667 9.45833 18.6667C6.88472 18.6667 4.70683 17.7756 2.92467 15.9934C1.14156 14.2103 0.25 12.0319 0.25 9.45833C0.25 6.88472 1.14156 4.70636 2.92467 2.92325C4.70683 1.14108 6.88472 0.25 9.45833 0.25C12.0319 0.25 14.2103 1.14108 15.9934 2.92325C17.7756 4.70636 18.6667 6.88472 18.6667 9.45833C18.6667 10.4972 18.5014 11.4771 18.1708 12.3979C17.8403 13.3187 17.3917 14.1333 16.825 14.8417L25.75 23.7667L23.7667 25.75ZM9.45833 15.8333C11.2292 15.8333 12.7346 15.2138 13.9747 13.9747C15.2138 12.7346 15.8333 11.2292 15.8333 9.45833C15.8333 7.6875 15.2138 6.18205 13.9747 4.942C12.7346 3.70289 11.2292 3.08333 9.45833 3.08333C7.6875 3.08333 6.18205 3.70289 4.942 4.942C3.70289 6.18205 3.08333 7.6875 3.08333 9.45833C3.08333 11.2292 3.70289 12.7346 4.942 13.9747C6.18205 15.2138 7.6875 15.8333 9.45833 15.8333Z" fill="white" fill-opacity="0.4"/>
</svg>
