<svg class="transactions" viewBox="0 0 24 22" fill="none" xmlns="http://www.w3.org/2000/svg">
    <path d="M1.50004 0.5H22.5C22.8095 0.5 23.1062 0.622916 23.325 0.841709C23.5438 1.0605 23.6667 1.35725 23.6667 1.66667V20.3333C23.6667 20.6428 23.5438 20.9395 23.325 21.1583C23.1062 21.3771 22.8095 21.5 22.5 21.5H1.50004C1.19062 21.5 0.893875 21.3771 0.675083 21.1583C0.45629 20.9395 0.333374 20.6428 0.333374 20.3333V1.66667C0.333374 1.35725 0.45629 1.0605 0.675083 0.841709C0.893875 0.622916 1.19062 0.5 1.50004 0.5ZM12 7.5H7.33337V9.83333H17.8334L12 4V7.5ZM6.16671 12.1667L12 18V14.5H16.6667V12.1667H6.16671Z" fill="white" fill-opacity="0.5"/>
</svg>
