<svg class="loupe" viewBox="0 0 18 18" fill="none" xmlns="http://www.w3.org/2000/svg">
    <path d="M15.9667 17.25L10.1917 11.475C9.73333 11.8417 9.20625 12.1319 8.61042 12.3458C8.01458 12.5597 7.38056 12.6667 6.70833 12.6667C5.04306 12.6667 3.63383 12.0901 2.48067 10.9369C1.32689 9.78314 0.75 8.37361 0.75 6.70833C0.75 5.04306 1.32689 3.63353 2.48067 2.47975C3.63383 1.32658 5.04306 0.75 6.70833 0.75C8.37361 0.75 9.78314 1.32658 10.9369 2.47975C12.0901 3.63353 12.6667 5.04306 12.6667 6.70833C12.6667 7.38056 12.5597 8.01458 12.3458 8.61042C12.1319 9.20625 11.8417 9.73333 11.475 10.1917L17.25 15.9667L15.9667 17.25ZM6.70833 10.8333C7.85417 10.8333 8.82828 10.4324 9.63067 9.63067C10.4324 8.82828 10.8333 7.85417 10.8333 6.70833C10.8333 5.5625 10.4324 4.58839 9.63067 3.786C8.82828 2.98422 7.85417 2.58333 6.70833 2.58333C5.5625 2.58333 4.58839 2.98422 3.786 3.786C2.98422 4.58839 2.58333 5.5625 2.58333 6.70833C2.58333 7.85417 2.98422 8.82828 3.786 9.63067C4.58839 10.4324 5.5625 10.8333 6.70833 10.8333Z" fill="white" fill-opacity="0.9"/>
</svg>
