<svg class="review_block_left_yandex" viewBox="0 0 54 54" fill="none" xmlns="http://www.w3.org/2000/svg">
    <path d="M9.56815 0C4.26773 0 0 4.26773 0 9.56815V44.4319C0 49.7323 4.26773 54.0001 9.56815 54.0001H35.2283L54.0001 27.0068L35.2283 5.4e-05H9.56815V0ZM23.9372 9.8584H30.0342C30.4085 9.8584 30.6231 9.99529 30.6231 10.3174V43.9189C30.6231 44.1475 30.5153 44.2851 30.1944 44.2851H26.8785C26.6661 44.2851 26.5056 44.1017 26.5056 43.9644V31.5242H23.8292L16.3957 43.9644C16.289 44.1933 16.0754 44.2851 15.7545 44.2851H11.9576C11.531 44.2851 11.2635 43.9645 11.5307 43.551L19.7117 30.8812C15.3276 29.2287 12.8672 25.8778 12.8672 21.3333C12.8672 13.7591 17.9481 9.85835 23.9372 9.85835L23.9372 9.8584ZM23.7769 12.7947C20.5147 12.7947 17.3053 15.1357 17.3053 20.8744C17.3053 26.383 20.7283 28.5863 24.2578 28.5863H26.5056V12.7947H23.7769Z" fill="#DD2743"/>
</svg>