<svg class="personal_information_portraitMini" viewBox="0 0 22 22" fill="none" xmlns="http://www.w3.org/2000/svg">
    <path d="M11 12.1667C12.1278 12.1667 13.0903 11.7681 13.8875 10.9708C14.6847 10.1736 15.0833 9.21111 15.0833 8.08333C15.0833 6.95556 14.6847 5.99306 13.8875 5.19583C13.0903 4.39861 12.1278 4 11 4C9.87222 4 8.90972 4.39861 8.1125 5.19583C7.31528 5.99306 6.91667 6.95556 6.91667 8.08333C6.91667 9.21111 7.31528 10.1736 8.1125 10.9708C8.90972 11.7681 9.87222 12.1667 11 12.1667ZM2.83333 21.5C2.19167 21.5 1.64217 21.2717 1.18483 20.8152C0.728278 20.3578 0.5 19.8083 0.5 19.1667V2.83333C0.5 2.19167 0.728278 1.64217 1.18483 1.18483C1.64217 0.728278 2.19167 0.5 2.83333 0.5H19.1667C19.8083 0.5 20.3578 0.728278 20.8152 1.18483C21.2717 1.64217 21.5 2.19167 21.5 2.83333V19.1667C21.5 19.8083 21.2717 20.3578 20.8152 20.8152C20.3578 21.2717 19.8083 21.5 19.1667 21.5H2.83333ZM2.83333 19.1667H19.1667V17.825C18.1167 16.7944 16.8967 15.9824 15.5068 15.389C14.1162 14.7963 12.6139 14.5 11 14.5C9.38611 14.5 7.88422 14.7963 6.49433 15.389C5.10367 15.9824 3.88333 16.7944 2.83333 17.825V19.1667Z" fill="white" fill-opacity="0.5"/>
</svg>
