<svg width="12" height="12" viewBox="0 0 12 12" fill="none" xmlns="http://www.w3.org/2000/svg">
<path d="M6.00008 8.9165C6.16536 8.9165 6.304 8.8605 6.416 8.7485C6.52761 8.63689 6.58341 8.49845 6.58341 8.33317V5.98525C6.58341 5.81998 6.52761 5.68386 6.416 5.57692C6.304 5.46998 6.16536 5.4165 6.00008 5.4165C5.8348 5.4165 5.69636 5.47231 5.58475 5.58392C5.47275 5.69592 5.41675 5.83456 5.41675 5.99984V8.34775C5.41675 8.51303 5.47275 8.64914 5.58475 8.75609C5.69636 8.86303 5.8348 8.9165 6.00008 8.9165ZM6.00008 4.24984C6.16536 4.24984 6.304 4.19384 6.416 4.08184C6.52761 3.97023 6.58341 3.83178 6.58341 3.6665C6.58341 3.50123 6.52761 3.36259 6.416 3.25059C6.304 3.13898 6.16536 3.08317 6.00008 3.08317C5.8348 3.08317 5.69636 3.13898 5.58475 3.25059C5.47275 3.36259 5.41675 3.50123 5.41675 3.6665C5.41675 3.83178 5.47275 3.97023 5.58475 4.08184C5.69636 4.19384 5.8348 4.24984 6.00008 4.24984ZM6.00008 11.8332C5.19314 11.8332 4.4348 11.6799 3.72508 11.3735C3.01536 11.0674 2.398 10.6519 1.873 10.1269C1.348 9.60192 0.93247 8.98456 0.626415 8.27484C0.31997 7.56511 0.166748 6.80678 0.166748 5.99984C0.166748 5.19289 0.31997 4.43456 0.626415 3.72484C0.93247 3.01512 1.348 2.39775 1.873 1.87275C2.398 1.34775 3.01536 0.932032 3.72508 0.625587C4.4348 0.319532 5.19314 0.166504 6.00008 0.166504C6.80703 0.166504 7.56536 0.319532 8.27508 0.625587C8.9848 0.932032 9.60217 1.34775 10.1272 1.87275C10.6522 2.39775 11.0677 3.01512 11.3737 3.72484C11.6802 4.43456 11.8334 5.19289 11.8334 5.99984C11.8334 6.80678 11.6802 7.56511 11.3737 8.27484C11.0677 8.98456 10.6522 9.60192 10.1272 10.1269C9.60217 10.6519 8.9848 11.0674 8.27508 11.3735C7.56536 11.6799 6.80703 11.8332 6.00008 11.8332Z" fill="white" fill-opacity="0.5"/>
</svg>
