<svg class="transactions" viewBox="0 0 24 22" fill="none" xmlns="http://www.w3.org/2000/svg">
    <path d="M1.49992 0.5H22.4999C22.8093 0.5 23.1061 0.622916 23.3249 0.841709C23.5437 1.0605 23.6666 1.35725 23.6666 1.66667V20.3333C23.6666 20.6428 23.5437 20.9395 23.3249 21.1583C23.1061 21.3771 22.8093 21.5 22.4999 21.5H1.49992C1.1905 21.5 0.893753 21.3771 0.674961 21.1583C0.456168 20.9395 0.333252 20.6428 0.333252 20.3333V1.66667C0.333252 1.35725 0.456168 1.0605 0.674961 0.841709C0.893753 0.622916 1.1905 0.5 1.49992 0.5ZM11.9999 7.5H7.33325V9.83333H17.8333L11.9999 4V7.5ZM6.16659 12.1667L11.9999 18V14.5H16.6666V12.1667H6.16659Z" fill="white"/>
</svg>
