<svg class="clock" viewBox="0 0 28 29" fill="none" xmlns="http://www.w3.org/2000/svg">
<path d="M13.0448 6.3418H14.6418C14.7879 6.3418 14.9075 6.46133 14.9075 6.60743V15.7482C14.9075 15.8346 14.8676 15.9143 14.7979 15.9641L9.30942 19.9717C9.18989 20.058 9.02387 20.0348 8.93754 19.9152L7.98793 18.6203C7.89828 18.4975 7.92485 18.3315 8.04438 18.2484L12.7791 14.8252V6.60743C12.7791 6.46133 12.8987 6.3418 13.0448 6.3418ZM5.74672 8.83868L0.540472 10.1104C0.374456 10.1502 0.211763 10.024 0.211763 9.85469L0.1852 4.49239C0.1852 4.26993 0.440865 4.14375 0.61352 4.28321L5.84633 8.37051C5.88588 8.40111 5.91599 8.44224 5.9332 8.48919C5.95041 8.53613 5.95402 8.58698 5.94361 8.63589C5.93321 8.6848 5.90921 8.72977 5.87438 8.76565C5.83955 8.80152 5.7953 8.82683 5.74672 8.83868ZM0.17856 18.8361L2.06118 18.1887C2.12681 18.1662 2.19865 18.1703 2.26132 18.2C2.32399 18.2298 2.37252 18.2829 2.39653 18.3481C2.45961 18.5174 2.52602 18.6834 2.59575 18.8494C3.18676 20.2473 4.03344 21.5057 5.11586 22.5848C6.18627 23.6585 7.45482 24.5143 8.85122 25.1049C10.2978 25.7165 11.8527 26.0304 13.4233 26.0279C15.0104 26.0279 16.5477 25.7191 17.9954 25.1049C19.3917 24.5143 20.6603 23.6585 21.7307 22.5848C22.8098 21.5057 23.6565 20.2473 24.2508 18.8494C24.8591 17.402 25.1707 15.8473 25.1672 14.2773C25.1672 12.6902 24.8584 11.1496 24.2442 9.70196C23.6532 8.30411 22.8065 7.04571 21.7241 5.96661C20.6537 4.89288 19.3851 4.03703 17.9887 3.44649C16.5477 2.83223 15.0071 2.52344 13.42 2.52344C11.8329 2.52344 10.2956 2.83223 8.84789 3.44649C7.4515 4.03703 6.18295 4.89288 5.11254 5.96661C4.77387 6.3086 4.45512 6.66387 4.16294 7.03907L2.17739 5.48516C4.79047 2.14493 8.85786 -0.00331647 13.4266 3.8434e-06C21.3821 0.00332416 27.7704 6.46465 27.6907 14.4234C27.611 22.2428 21.2526 28.5547 13.42 28.5547C7.26079 28.5547 2.01469 24.65 0.0158634 19.1815C-0.0339413 19.042 0.0391064 18.8859 0.17856 18.8361Z" fill="white" fill-opacity="0.5"/>
</svg>
