<svg class="sub_contact_svg_2" viewBox="0 0 26 26" fill="none" xmlns="http://www.w3.org/2000/svg">
    <path d="M16.8412 0.5H9.17125C2.16625 0.5 0.5 2.16625 0.5 9.15875V16.8288C0.5 23.8325 2.15375 25.5 9.15875 25.5H16.8288C23.8325 25.5 25.5 23.8463 25.5 16.8412V9.17125C25.5 2.16625 23.8463 0.5 16.8412 0.5ZM20.6825 18.3375H18.8587C18.1688 18.3375 17.9613 17.7787 16.7238 16.5413C15.6438 15.5 15.1875 15.37 14.9137 15.37C14.5363 15.37 14.4325 15.4738 14.4325 15.995V17.635C14.4325 18.0788 14.2887 18.3387 13.13 18.3387C12.0054 18.2632 10.9149 17.9215 9.94825 17.3419C8.98159 16.7623 8.16646 15.9613 7.57 15.005C6.15396 13.2425 5.16868 11.1739 4.6925 8.96375C4.6925 8.69 4.79625 8.4425 5.3175 8.4425H7.14C7.60875 8.4425 7.7775 8.65125 7.96125 9.1325C8.84625 11.7375 10.3562 14.0025 10.9688 14.0025C11.2037 14.0025 11.3063 13.8988 11.3063 13.3125V10.63C11.2288 9.40625 10.5787 9.3025 10.5787 8.86C10.5871 8.74329 10.6406 8.63441 10.7279 8.55647C10.8151 8.47853 10.9293 8.43765 11.0463 8.4425H13.9113C14.3025 8.4425 14.4325 8.6375 14.4325 9.10625V12.7262C14.4325 13.1175 14.6012 13.2475 14.7188 13.2475C14.9537 13.2475 15.135 13.1175 15.565 12.6875C16.4886 11.5612 17.2432 10.3063 17.805 8.9625C17.8624 8.80108 17.9711 8.66288 18.1144 8.56899C18.2577 8.4751 18.4278 8.43068 18.5988 8.4425H20.4225C20.9688 8.4425 21.085 8.71625 20.9688 9.10625C20.3056 10.5918 19.4851 12.0019 18.5212 13.3125C18.325 13.6125 18.2463 13.7688 18.5212 14.12C18.7025 14.3938 19.3412 14.9275 19.7712 15.435C20.3961 16.0583 20.915 16.7795 21.3075 17.57C21.4637 18.0775 21.2025 18.3387 20.6825 18.3387V18.3375Z" fill="white"/>
</svg>