<svg class="graph" viewBox="0 0 24 24" fill="none" xmlns="http://www.w3.org/2000/svg">
<path d="M10.0625 13.2188L11.6875 14.8438C11.9167 15.0729 12.2083 15.1875 12.5625 15.1875C12.9167 15.1875 13.2083 15.0729 13.4375 14.8438L17 11.2812V12.0312C17 12.3854 17.12 12.6771 17.36 12.9062C17.5992 13.1354 17.8958 13.25 18.25 13.25C18.6042 13.25 18.9008 13.13 19.14 12.89C19.38 12.6508 19.5 12.3542 19.5 12V8.25C19.5 7.89583 19.38 7.59875 19.14 7.35875C18.9008 7.11958 18.6042 7 18.25 7H14.4688C14.1146 7 13.8229 7.11958 13.5938 7.35875C13.3646 7.59875 13.25 7.89583 13.25 8.25C13.25 8.60417 13.37 8.90083 13.61 9.14C13.8492 9.38 14.1458 9.5 14.5 9.5H15.2188L12.5625 12.1875L10.9375 10.5625C10.7083 10.3125 10.4167 10.1875 10.0625 10.1875C9.70833 10.1875 9.41667 10.3125 9.1875 10.5625L5.375 14.375C5.125 14.6042 5 14.8958 5 15.25C5 15.6042 5.125 15.8958 5.375 16.125C5.60417 16.375 5.89583 16.5 6.25 16.5C6.60417 16.5 6.89583 16.375 7.125 16.125L10.0625 13.2188ZM3.25 23.25C2.5625 23.25 1.97375 23.0054 1.48375 22.5163C0.994583 22.0263 0.75 21.4375 0.75 20.75V3.25C0.75 2.5625 0.994583 1.97375 1.48375 1.48375C1.97375 0.994583 2.5625 0.75 3.25 0.75H20.75C21.4375 0.75 22.0263 0.994583 22.5163 1.48375C23.0054 1.97375 23.25 2.5625 23.25 3.25V20.75C23.25 21.4375 23.0054 22.0263 22.5163 22.5163C22.0263 23.0054 21.4375 23.25 20.75 23.25H3.25ZM3.25 20.75H20.75V3.25H3.25V20.75ZM3.25 3.25V20.75V3.25Z" fill="white" fill-opacity="0.5"/>
</svg>
