<svg width="40" height="40" viewBox="0 0 40 40" fill="none" xmlns="http://www.w3.org/2000/svg">
<path d="M15.0013 13.3332H25.0013V9.99984C25.0013 8.61095 24.5152 7.43039 23.543 6.45817C22.5707 5.48595 21.3902 4.99984 20.0013 4.99984C18.6124 4.99984 17.4319 5.48595 16.4596 6.45817C15.4874 7.43039 15.0013 8.61095 15.0013 9.99984V13.3332ZM30.0013 38.3332C27.6957 38.3332 25.7307 37.521 24.1063 35.8965C22.4807 34.271 21.668 32.3054 21.668 29.9998C21.668 27.6943 22.4807 25.7287 24.1063 24.1032C25.7307 22.4787 27.6957 21.6665 30.0013 21.6665C32.3069 21.6665 34.2724 22.4787 35.898 24.1032C37.5224 25.7287 38.3346 27.6943 38.3346 29.9998C38.3346 32.3054 37.5224 34.271 35.898 35.8965C34.2724 37.521 32.3069 38.3332 30.0013 38.3332ZM32.7513 33.9165L33.918 32.7498L30.8346 29.6665V24.9998H29.168V30.3332L32.7513 33.9165ZM20.418 36.6665H10.0013C9.08464 36.6665 8.30019 36.3404 7.64797 35.6882C6.99464 35.0348 6.66797 34.2498 6.66797 33.3332V16.6665C6.66797 15.7498 6.99464 14.9648 7.64797 14.3115C8.30019 13.6593 9.08464 13.3332 10.0013 13.3332H11.668V9.99984C11.668 7.69428 12.4807 5.72873 14.1063 4.10317C15.7307 2.47873 17.6957 1.6665 20.0013 1.6665C22.3069 1.6665 24.2724 2.47873 25.898 4.10317C27.5224 5.72873 28.3346 7.69428 28.3346 9.99984V13.3332H30.0013C30.918 13.3332 31.703 13.6593 32.3563 14.3115C33.0085 14.9648 33.3346 15.7498 33.3346 16.6665V18.8332C32.7791 18.6387 32.2235 18.5065 31.668 18.4365C31.1124 18.3676 30.5569 18.3332 30.0013 18.3332C26.7513 18.3332 23.9946 19.4648 21.7313 21.7282C19.4669 23.9926 18.3346 26.7498 18.3346 29.9998C18.3346 31.1943 18.5224 32.3537 18.898 33.4782C19.2724 34.6037 19.7791 35.6665 20.418 36.6665Z" fill="white" fill-opacity="0.9"/>
</svg>
