<svg width="32" height="32" viewBox="0 0 32 32" fill="black" xmlns="http://www.w3.org/2000/svg">
<path d="M14.668 22.6665H17.3346V17.3332H22.668V14.6665H17.3346V9.33317H14.668V14.6665H9.33464V17.3332H14.668V22.6665ZM16.0013 29.3332C14.1569 29.3332 12.4235 28.983 10.8013 28.2825C9.17908 27.583 7.76797 26.6332 6.56797 25.4332C5.36797 24.2332 4.41819 22.8221 3.71864 21.1998C3.01819 19.5776 2.66797 17.8443 2.66797 15.9998C2.66797 14.1554 3.01819 12.4221 3.71864 10.7998C4.41819 9.17762 5.36797 7.76651 6.56797 6.5665C7.76797 5.3665 9.17908 4.41628 10.8013 3.71584C12.4235 3.01628 14.1569 2.6665 16.0013 2.6665C17.8457 2.6665 19.5791 3.01628 21.2013 3.71584C22.8235 4.41628 24.2346 5.3665 25.4346 6.5665C26.6346 7.76651 27.5844 9.17762 28.284 10.7998C28.9844 12.4221 29.3346 14.1554 29.3346 15.9998C29.3346 17.8443 28.9844 19.5776 28.284 21.1998C27.5844 22.8221 26.6346 24.2332 25.4346 25.4332C24.2346 26.6332 22.8235 27.583 21.2013 28.2825C19.5791 28.983 17.8457 29.3332 16.0013 29.3332ZM16.0013 26.6665C18.9791 26.6665 21.5013 25.6332 23.568 23.5665C25.6346 21.4998 26.668 18.9776 26.668 15.9998C26.668 13.0221 25.6346 10.4998 23.568 8.43317C21.5013 6.3665 18.9791 5.33317 16.0013 5.33317C13.0235 5.33317 10.5013 6.3665 8.43464 8.43317C6.36797 10.4998 5.33464 13.0221 5.33464 15.9998C5.33464 18.9776 6.36797 21.4998 8.43464 23.5665C10.5013 25.6332 13.0235 26.6665 16.0013 26.6665Z" fill="#FFDB18"/>
</svg>
