<svg width="34" height="34" viewBox="0 0 34 34" fill="none" xmlns="http://www.w3.org/2000/svg">
<path d="M27.7667 29.75L18.8417 20.825C18.1333 21.3917 17.3187 21.8403 16.3979 22.1708C15.4771 22.5014 14.4972 22.6667 13.4583 22.6667C10.8847 22.6667 8.70683 21.7756 6.92467 19.9934C5.14156 18.2103 4.25 16.0319 4.25 13.4583C4.25 10.8847 5.14156 8.70636 6.92467 6.92325C8.70683 5.14108 10.8847 4.25 13.4583 4.25C16.0319 4.25 18.2103 5.14108 19.9934 6.92325C21.7756 8.70636 22.6667 10.8847 22.6667 13.4583C22.6667 14.4972 22.5014 15.4771 22.1708 16.3979C21.8403 17.3187 21.3917 18.1333 20.825 18.8417L29.75 27.7667L27.7667 29.75ZM13.4583 19.8333C15.2292 19.8333 16.7346 19.2138 17.9747 17.9747C19.2138 16.7346 19.8333 15.2292 19.8333 13.4583C19.8333 11.6875 19.2138 10.1821 17.9747 8.942C16.7346 7.70289 15.2292 7.08333 13.4583 7.08333C11.6875 7.08333 10.1821 7.70289 8.942 8.942C7.70289 10.1821 7.08333 11.6875 7.08333 13.4583C7.08333 15.2292 7.70289 16.7346 8.942 17.9747C10.1821 19.2138 11.6875 19.8333 13.4583 19.8333Z" fill="white" fill-opacity="0.4"/>
</svg>
