<svg class="search_white" viewBox="0 0 22 22" fill="none" xmlns="http://www.w3.org/2000/svg">
<path d="M17.9667 19.25L12.1917 13.475C11.7333 13.8417 11.2063 14.1319 10.6104 14.3458C10.0146 14.5597 9.38056 14.6667 8.70833 14.6667C7.04306 14.6667 5.63383 14.0901 4.48067 12.9369C3.32689 11.7831 2.75 10.3736 2.75 8.70833C2.75 7.04306 3.32689 5.63353 4.48067 4.47975C5.63383 3.32658 7.04306 2.75 8.70833 2.75C10.3736 2.75 11.7831 3.32658 12.9369 4.47975C14.0901 5.63353 14.6667 7.04306 14.6667 8.70833C14.6667 9.38056 14.5597 10.0146 14.3458 10.6104C14.1319 11.2063 13.8417 11.7333 13.475 12.1917L19.25 17.9667L17.9667 19.25ZM8.70833 12.8333C9.85417 12.8333 10.8283 12.4324 11.6307 11.6307C12.4324 10.8283 12.8333 9.85417 12.8333 8.70833C12.8333 7.5625 12.4324 6.58839 11.6307 5.786C10.8283 4.98422 9.85417 4.58333 8.70833 4.58333C7.5625 4.58333 6.58839 4.98422 5.786 5.786C4.98422 6.58839 4.58333 7.5625 4.58333 8.70833C4.58333 9.85417 4.98422 10.8283 5.786 11.6307C6.58839 12.4324 7.5625 12.8333 8.70833 12.8333Z" fill="white" fill-opacity="0.9"/>
</svg>
